<?xml version="1.0" encoding="UTF-8"?> <svg xmlns="http://www.w3.org/2000/svg" xmlns:xlink="http://www.w3.org/1999/xlink" xmlns:v="https://vecta.io/nano" width="227.878" height="103.529"><defs><clipPath id="A"><path fill="none" d="M0 0h227.878v103.529H0z"></path></clipPath><path id="B" d="M18.758 2.445c-.33 0-.627-.199-.753-.503s-.056-.655.177-.888.584-.303.888-.177.503.423.503.753a.82.82 0 0 1-.815.815m.676 8.178h-1.368v-6.9h1.368z"></path><path id="C" d="M25.537 5.503c-.586-.423-1.279-.674-2-.723-.553 0-.908.263-.908.632 0 .307.462.676 1.677 1.384 1.136.752 1.552 1.229 1.552 1.935-.01.579-.262 1.128-.694 1.513s-1.006.573-1.582.517a4.78 4.78 0 0 1-2.4-.63V8.655a4.4 4.4 0 0 0 2.258.906c.553-.03 1.015-.292 1.015-.783 0-.954-3.228-1.461-3.228-3.321 0-1.168.892-1.876 2.274-1.876.714.018 1.411.213 2.03.569z"></path></defs><path fill="#fdc300" d="M0 24.839h218.301v78.69H0z"></path><g clip-path="url(#A)"><path d="M10.086 14.407v79.228h125.046c.385.235 21.363 12.848 51.627 0h41.121V14.407z" fill="#00417a"></path><g fill="#fdc300"><path d="M4.651 62.391S63.28 49.676 73.17 99.123H61.16s-5.651-39.555-52.271-33.2zM196.24 24.76s-8.9 49.841-65.476 51.375c0 0 43.572-4.848 65.476-51.375M92.177 52.803c0 2.664-1.604 5.066-4.065 6.085a6.59 6.59 0 0 1-7.178-1.427c-1.884-1.883-2.447-4.716-1.428-7.177s3.421-4.066 6.085-4.066a6.59 6.59 0 0 1 6.586 6.585m73.176-.432a5 5 0 1 1-10 0 5 5 0 1 1 10 0m14.903 13.494c-41.357 10.642-53.16 33.46-55.017 37.665h.27c5.374-6.465 49.62-56.583 102.371-21.493V69.706c-14.155-5.325-30.713-8.192-47.624-3.841"></path></g><g fill="#00417a"><path d="M9.458 2.474a6.9 6.9 0 0 0-3.617-1.09A3.99 3.99 0 0 0 1.664 5.4a3.92 3.92 0 0 0 4.243 3.98 6.87 6.87 0 0 0 3.658-1.186v1.644a7.67 7.67 0 0 1-3.8.922c-1.449.081-2.868-.43-3.934-1.415S.145 6.985.112 5.534A5.46 5.46 0 0 1 5.861 0c1.246.038 2.471.331 3.6.861zm7.242 7.749a2.2 2.2 0 0 1-1.322.537c-.6 0-.924-.216-1.045-.708a2.97 2.97 0 0 1-1.861.708 1.67 1.67 0 0 1-1.203-.487c-.319-.318-.495-.752-.489-1.203 0-1.368 1.245-1.784 2.353-2.181l1.214-.432v-.369c0-.861-.415-1.214-1.245-1.214a2.86 2.86 0 0 0-2.183 1.135V4.52a2.83 2.83 0 0 1 2.29-.938 2.21 2.21 0 0 1 2.506 2.276v3.551c0 .262.093.353.262.353a1.65 1.65 0 0 0 .723-.369zm-2.353-3.014c-1.168.4-2.183.8-2.183 1.614a.94.94 0 0 0 .983.968c.459-.025.89-.228 1.2-.567z"></path><use xlink:href="#B"></use><use xlink:href="#C"></use><path d="M31.578 5.503c-.586-.423-1.279-.674-2-.723-.553 0-.908.263-.908.632 0 .307.462.676 1.677 1.384 1.136.752 1.552 1.229 1.552 1.935-.01.579-.262 1.128-.694 1.513s-1.006.573-1.582.517a4.78 4.78 0 0 1-2.4-.63V8.655a4.4 4.4 0 0 0 2.258.906c.553-.03 1.015-.292 1.015-.783 0-.954-3.228-1.461-3.228-3.321 0-1.168.892-1.876 2.274-1.876.714.018 1.411.213 2.03.569zm7.793 4.445c-.803.565-1.769.85-2.75.813-.942-.012-1.838-.414-2.473-1.11s-.954-1.624-.879-2.564a3.21 3.21 0 0 1 3.228-3.505c1.83 0 3 1.245 3 3.8h-4.86c.024.586.285 1.137.723 1.528s1.015.587 1.6.544a4.39 4.39 0 0 0 2.413-.831zm-1.229-3.476a1.58 1.58 0 0 0-.429-1.211c-.308-.325-.738-.504-1.185-.494a1.79 1.79 0 0 0-1.86 1.705zM54.867 9.9c-1.252.584-2.619.878-4 .861a5.29 5.29 0 0 1-5.581-5.318A5.43 5.43 0 0 1 50.917 0c1.297.01 2.575.315 3.736.892v1.521a7.82 7.82 0 0 0-3.767-1.029 3.96 3.96 0 0 0-2.873 1.151c-.762.757-1.184 1.791-1.17 2.865a3.95 3.95 0 0 0 1.246 2.923c.806.757 1.894 1.14 2.997 1.057.775-.017 1.543-.157 2.274-.415V6.81h-2.013V5.458h3.519zm7.886.047a4.49 4.49 0 0 1-2.752.813 3.4 3.4 0 0 1-3.351-3.674 3.21 3.21 0 0 1 3.226-3.505c1.831 0 3 1.247 3 3.8h-4.857a2.16 2.16 0 0 0 .721 1.528 2.17 2.17 0 0 0 1.599.546 4.39 4.39 0 0 0 2.415-.831zm-1.23-3.476a1.58 1.58 0 0 0-1.617-1.705 1.79 1.79 0 0 0-1.86 1.705zm-.107-5.9l-1.722 2.256h-.846L59.877.569zm4.395 4.056h.032a2.67 2.67 0 0 1 2.06-1.046c1.307 0 2.351.892 2.351 2.783v4.259h-1.368V6.349c0-1.015-.523-1.675-1.354-1.675-.697.05-1.332.419-1.721 1v4.95h-1.368v-6.9h1.368zm12.238 5.32a4.49 4.49 0 0 1-2.752.813 3.4 3.4 0 0 1-3.35-3.674 3.21 3.21 0 0 1 3.226-3.505c1.83 0 3 1.247 3 3.8h-4.858a2.16 2.16 0 0 0 .721 1.528 2.17 2.17 0 0 0 1.599.546c.87-.032 1.71-.321 2.415-.831zm-1.23-3.476a1.58 1.58 0 0 0-1.614-1.705 1.79 1.79 0 0 0-1.86 1.705zm-.107-5.9L74.99 2.827h-.846L75.173.569zM81.23 3.72v1.584h.032c.69-1.215 1.352-1.723 2-1.723a2.4 2.4 0 0 1 1.644.8l-.722 1.182a2.27 2.27 0 0 0-1.275-.676c-1.047.127-1.796 1.074-1.679 2.122v3.612h-1.368v-6.9zm10.101 6.503a2.19 2.19 0 0 1-1.321.537c-.6 0-.924-.216-1.047-.708-.52.443-1.177.694-1.86.708a1.67 1.67 0 0 1-1.203-.488 1.66 1.66 0 0 1-.488-1.203c0-1.368 1.245-1.784 2.351-2.181l1.215-.432v-.368c0-.861-.414-1.214-1.245-1.214-.861.03-1.662.447-2.181 1.135V4.52a2.83 2.83 0 0 1 2.29-.938 2.21 2.21 0 0 1 2.506 2.276v3.551c0 .262.091.353.262.353a1.64 1.64 0 0 0 .722-.369zM88.98 7.209c-1.168.4-2.183.8-2.183 1.614a.94.94 0 0 0 .983.968 1.76 1.76 0 0 0 1.2-.567zm3.719-7.07h1.368v10.484h-1.368zm9.223 9.809c-.803.565-1.769.85-2.75.813-.942-.013-1.837-.415-2.471-1.111a3.41 3.41 0 0 1-.879-2.563 3.21 3.21 0 0 1 3.228-3.505c1.83 0 3 1.245 3 3.8h-4.863a2.17 2.17 0 0 0 .722 1.529c.438.391 1.015.588 1.6.545a4.39 4.39 0 0 0 2.413-.832zm-1.23-3.476a1.58 1.58 0 0 0-.429-1.211c-.308-.325-.738-.504-1.185-.494a1.79 1.79 0 0 0-1.856 1.705zm13.312 4.151h-2.906c-2.058 0-3.351-1.4-3.351-3.612-.035-.922.317-1.817.971-2.468a3.31 3.31 0 0 1 2.473-.96 4.07 4.07 0 0 1 1.445.276V.139h1.368zm-1.368-5.549a3.16 3.16 0 0 0-1.275-.262 2.18 2.18 0 0 0-1.646.703c-.423.459-.63 1.076-.568 1.697 0 1.291.523 2.26 2.107 2.26h1.382zm9.129 4.874a4.48 4.48 0 0 1-2.749.813c-.943-.011-1.838-.413-2.474-1.109s-.954-1.625-.88-2.565a3.21 3.21 0 0 1 .837-2.469c.616-.668 1.484-1.044 2.392-1.036 1.828 0 3 1.245 3 3.8h-4.858a2.17 2.17 0 0 0 .721 1.528c.437.391 1.014.588 1.599.546a4.38 4.38 0 0 0 2.413-.831zm-1.229-3.476a1.58 1.58 0 0 0-.429-1.211c-.308-.325-.738-.504-1.185-.494a1.79 1.79 0 0 0-1.86 1.705zm12.516-4.028a3.53 3.53 0 0 0-2.46-1.091c-.969 0-1.66.506-1.66 1.245 0 2.014 4.534 1.983 4.534 5.319a2.8 2.8 0 0 1-2.936 2.843 4.62 4.62 0 0 1-2.936-.969V7.887a3.54 3.54 0 0 0 2.766 1.522c1.168 0 1.707-.739 1.707-1.322 0-2.169-4.534-2.415-4.534-5.288 0-1.707 1.259-2.8 3.182-2.8a4.2 4.2 0 0 1 2.337.738zm7.762 7.503a4.49 4.49 0 0 1-2.752.813 3.4 3.4 0 0 1-3.351-3.674 3.21 3.21 0 0 1 3.227-3.505c1.83 0 3 1.247 3 3.8h-4.858a2.16 2.16 0 0 0 .721 1.528 2.17 2.17 0 0 0 1.599.546c.87-.032 1.71-.321 2.415-.831zm-1.23-3.476a1.58 1.58 0 0 0-1.614-1.705 1.79 1.79 0 0 0-1.86 1.705zm-.107-5.9l-1.722 2.256h-.846l1.029-2.258zm8.132 4.949a3.19 3.19 0 0 0-1.905-.676c-.599 0-1.171.254-1.572.699a2.12 2.12 0 0 0-.534 1.636 2.15 2.15 0 0 0 2.336 2.29c.636-.019 1.261-.176 1.83-.46v1.352a5.66 5.66 0 0 1-2.06.4 3.34 3.34 0 0 1-3.505-3.459c0-2.274 1.321-3.721 3.412-3.721a4.51 4.51 0 0 1 2 .478zm6.163 5.103v-.877a3 3 0 0 1-2.044 1.014c-1.4 0-2.383-1-2.383-2.752V3.721h1.368v4.38c0 .969.476 1.522 1.414 1.522.674-.03 1.289-.39 1.645-.963V3.721h1.368v6.9zm4.889-6.903v1.584h.03c.693-1.215 1.354-1.723 2-1.723a2.41 2.41 0 0 1 1.645.8l-.723 1.182a2.27 2.27 0 0 0-1.277-.676 1.92 1.92 0 0 0-1.675 2.122v3.612h-1.37v-6.9zm5.472-1.275c-.33 0-.627-.199-.753-.503s-.056-.655.177-.888.584-.303.888-.177.503.423.503.753a.82.82 0 0 1-.815.815m.676 8.178h-1.368v-6.9h1.368zm3.69-6.904h2.183v1.23h-2.183v3.536c-.027.274.066.546.254.746s.454.31.729.3c.555-.022 1.094-.198 1.554-.509v1.277a4.1 4.1 0 0 1-1.661.46 2.04 2.04 0 0 1-2.244-2.167V4.949h-1.2v-.153l2.567-2.506zm9.407 6.228a4.49 4.49 0 0 1-2.752.813c-.942-.012-1.837-.414-2.472-1.11s-.953-1.624-.879-2.564a3.21 3.21 0 0 1 3.228-3.505c1.83 0 3 1.247 3 3.8h-4.856c.023.586.283 1.138.72 1.529s1.015.588 1.6.545a4.39 4.39 0 0 0 2.413-.831zm-1.229-3.475a1.58 1.58 0 0 0-.429-1.211c-.308-.325-.738-.504-1.185-.494a1.79 1.79 0 0 0-1.86 1.705zm-.109-5.9l-1.721 2.258h-.845l1.03-2.261zm12.621 1.872c-.643-.675-1.528-1.067-2.46-1.091-.968 0-1.658.506-1.658 1.245 0 2.014 4.533 1.983 4.533 5.319a2.8 2.8 0 0 1-2.936 2.843c-1.061.024-2.097-.318-2.935-.969V7.887a3.54 3.54 0 0 0 2.766 1.522c1.168 0 1.707-.739 1.707-1.322 0-2.169-4.536-2.415-4.536-5.288 0-1.707 1.261-2.8 3.184-2.8a4.19 4.19 0 0 1 2.336.738zm8.962 4.658a3.69 3.69 0 0 1-7.379 0c.097-1.967 1.72-3.512 3.69-3.512s3.592 1.545 3.69 3.512m-5.978 0c-.053.85.369 1.66 1.097 2.103s1.641.446 2.372.008 1.159-1.244 1.112-2.095a2.25 2.25 0 0 0-2.351-2.309 2.19 2.19 0 0 0-2.229 2.292m12.694-1.581a3.19 3.19 0 0 0-1.907-.676c-.599.001-1.169.256-1.569.701a2.12 2.12 0 0 0-.531 1.635 2.15 2.15 0 0 0 2.337 2.29 4.4 4.4 0 0 0 1.828-.46v1.351a5.66 5.66 0 0 1-2.061.4 3.34 3.34 0 0 1-3.505-3.459c0-2.274 1.322-3.721 3.414-3.721a4.52 4.52 0 0 1 2 .478zm2.506-3.075c-.33.001-.628-.197-.754-.502s-.058-.655.175-.889.584-.304.888-.178.504.423.504.753a.82.82 0 0 1-.813.815m.675 8.178h-1.368v-6.9h1.368zm7.44-.399a2.19 2.19 0 0 1-1.321.537c-.6 0-.924-.216-1.047-.708-.519.443-1.176.693-1.858.708a1.67 1.67 0 0 1-1.693-1.691c0-1.368 1.245-1.784 2.351-2.181l1.215-.432v-.368c0-.861-.414-1.214-1.245-1.214a2.86 2.86 0 0 0-2.181 1.135V4.52a2.83 2.83 0 0 1 2.292-.938 2.21 2.21 0 0 1 2.506 2.276v3.551c0 .262.091.353.26.353.268-.06.516-.187.722-.369zm-2.351-3.014c-1.168.4-2.183.8-2.183 1.614a.94.94 0 0 0 .983.968 1.75 1.75 0 0 0 1.2-.567zm3.718-7.07h1.37v10.484h-1.37zm9.226 9.809a4.5 4.5 0 0 1-2.753.813 3.41 3.41 0 0 1-2.471-1.111c-.635-.696-.952-1.624-.878-2.563a3.21 3.21 0 0 1 3.223-3.505c1.831 0 3 1.245 3 3.8h-4.857a2.16 2.16 0 0 0 .721 1.528 2.17 2.17 0 0 0 1.599.546 4.4 4.4 0 0 0 2.414-.831zm-1.229-3.476c.034-.446-.121-.885-.428-1.21a1.58 1.58 0 0 0-1.184-.495 1.79 1.79 0 0 0-1.863 1.705z"></path></g><g fill="#fdc300"><path d="M140.447 24.597h-1.958l-.288-5.927h-.027l-3.537 5.928h-.965l-1.681-6.095h-.027l-2.153 6.095h-2.039l3.1-8.769h2.229l1.537 5.516 3.215-5.516h2.148zm10.497 0h-1.889l.085-.539a2.96 2.96 0 0 1-1.831.656 2.3 2.3 0 0 1-2.222-2.509c0-1.7 1.174-3.548 4.6-3.548a10.79 10.79 0 0 1 2.137.192zm-1.2-4.474c-2.348-.219-2.7 1.453-2.7 2.172s.348 1.119.922 1.119a2.3 2.3 0 0 0 1.355-.514zm8.814-.527l.028.025a2.22 2.22 0 0 1 1.537-.965c.454.037.868.274 1.132.645l-.881 1.606c-.322-.437-.586-.63-.894-.63-.495.085-.92.4-1.146.849l-.531 3.47h-1.886l.9-5.836h1.885zm9.64-.836h1.4l-.252 1.286h-1.4l-.362 1.89c-.126.656-.014 1.221.517 1.221a2.73 2.73 0 0 0 1.089-.347v1.529a3.7 3.7 0 0 1-1.62.374 1.89 1.89 0 0 1-1.604-.716 1.9 1.9 0 0 1-.325-1.727l.448-2.224h-1.286l.238-1.286h1.286l.224-1.234h1.913zm7.128 5.839h-1.888l.894-5.838h1.887zm1.144-7.458a.98.98 0 1 1-.979-.9c.249-.012.493.077.677.246s.293.405.302.654m6.625 2.278a3.53 3.53 0 0 1 2.167-.76c1.467 0 1.858 1.132 1.677 2.328l-.545 3.614h-1.887l.531-3.485c.085-.566-.057-1.171-.559-1.171a2.5 2.5 0 0 0-1.593.9l-.572 3.756h-1.888l.9-5.838h1.887zm10.257 5.18h-1.885l.9-5.838h1.887zm1.147-7.458a.98.98 0 1 1-.979-.9c.249-.012.493.077.677.246s.293.405.302.654m9.461 10.415h-1.888l.517-3.357a4.04 4.04 0 0 1-1.844.5c-.64-.005-1.247-.284-1.669-.765a2.24 2.24 0 0 1-.539-1.755c0-1.877 1.258-3.5 4.347-3.5h2.432zm-.755-7.406c-1.595-.117-2.739.566-2.739 1.992a1.12 1.12 0 0 0 1.1 1.273 2 2 0 0 0 1.2-.411zm12.229 4.448h-1.888l.112-.656a3.42 3.42 0 0 1-2.054.758c-.576.053-1.141-.184-1.506-.634s-.481-1.051-.311-1.604l.572-3.7h1.887l-.474 3.1c-.18 1.169.057 1.554.5 1.554a2.43 2.43 0 0 0 1.593-.848l.572-3.806h1.888zm7.099-2.679a1.31 1.31 0 0 0 1.452 1.5 7.23 7.23 0 0 0 2.35-.591l-.336 1.453a6.98 6.98 0 0 1-2.208.426c-1.929 0-3.158-1.119-3.158-2.842.026-.883.403-1.72 1.049-2.324a3.31 3.31 0 0 1 2.388-.891 2.48 2.48 0 0 1 2.612 3.269zm2.4-1a.85.85 0 0 0-.909-1.067c-.616 0-1.032.334-1.314 1.067zm-87.024 74.555c-20.621-4.536-94.896-24.985-78.577-81.136H48.095S30.52 82.494 137.909 95.92z"></path></g></g></svg> 